<?xml version="1.0" encoding="iso-8859-1"?>
<!-- Uploaded to: SVG Repo, www.svgrepo.com, Generator: SVG Repo Mixer Tools -->
<svg fill="#000000" height="800px" width="800px" version="1.1" id="Layer_1" xmlns="http://www.w3.org/2000/svg" xmlns:xlink="http://www.w3.org/1999/xlink" 
	 viewBox="0 0 511.936 511.936" xml:space="preserve">
<g>
	<g>
		<path d="M383.968,0h-256C80.907,0,42.635,38.272,42.635,85.333v213.333c0,47.061,38.272,85.333,85.333,85.333h64l0.085,92.075
			c0,14.571,8.683,27.584,22.165,33.173c4.331,1.792,8.875,2.688,13.419,2.688c9.536,0,19.136-3.968,27.029-11.968L350.496,384
			h33.472c47.061,0,85.333-38.272,85.333-85.333V85.333C469.301,38.272,431.029,0,383.968,0z M255.968,85.333
			c11.776,0,21.333,9.557,21.333,21.333S267.744,128,255.968,128s-21.333-9.557-21.333-21.333S244.192,85.333,255.968,85.333z
			 M298.635,298.667h-85.333c-11.797,0-21.333-9.557-21.333-21.333S201.504,256,213.301,256h21.333v-64
			c-11.797,0-21.333-9.557-21.333-21.333s9.536-21.333,21.333-21.333h21.333c11.797,0,21.333,9.557,21.333,21.333V256h21.333
			c11.797,0,21.333,9.557,21.333,21.333S310.432,298.667,298.635,298.667z"/>
	</g>
</g>
</svg>